{
	"asset":{
		"generator":"Khronos glTF Blender I/O v4.3.47",
		"version":"2.0"
	},
	"scene":0,
	"scenes":[
		{
			"name":"Scene",
			"nodes":[
				0,
				1,
				2,
				3,
				4,
				5,
				6,
				7,
				8,
				9,
				10,
				11,
				12,
				13,
				14,
				15,
				16,
				17
			]
		}
	],
	"nodes":[
		{
			"mesh":0,
			"name":"Cube",
			"scale":[
				3.0218842029571533,
				3.0218842029571533,
				3.0218842029571533
			]
		},
		{
			"mesh":1,
			"name":"Cube.001",
			"scale":[
				0.047815680503845215,
				0.6390912532806396,
				0.047815680503845215
			],
			"translation":[
				2.6871206760406494,
				-2.099195718765259,
				2.498136520385742
			]
		},
		{
			"mesh":2,
			"name":"Cube.002",
			"scale":[
				0.047815680503845215,
				0.6390912532806396,
				0.047815680503845215
			],
			"translation":[
				2.6871206760406494,
				-2.099195718765259,
				1.5886495113372803
			]
		},
		{
			"mesh":3,
			"name":"Cube.003",
			"scale":[
				0.047815680503845215,
				0.6390912532806396,
				0.047815680503845215
			],
			"translation":[
				0.9449214935302734,
				-2.099195718765259,
				2.498136520385742
			]
		},
		{
			"mesh":4,
			"name":"Cube.004",
			"scale":[
				0.047815680503845215,
				0.6390912532806396,
				0.047815680503845215
			],
			"translation":[
				0.9449214935302734,
				-2.099195718765259,
				1.5886495113372803
			]
		},
		{
			"mesh":5,
			"name":"Cube.005",
			"rotation":[
				0,
				0.7071068286895752,
				0,
				0.7071068286895752
			],
			"scale":[
				-0.5831043124198914,
				-0.018171651288866997,
				-1.0486207008361816
			],
			"translation":[
				1.8130683898925781,
				-1.4720666408538818,
				2.061110258102417
			]
		},
		{
			"mesh":6,
			"name":"Cube.006",
			"rotation":[
				0,
				0.7071068286895752,
				0,
				0.7071068286895752
			],
			"scale":[
				0.0381615124642849,
				0.48074591159820557,
				0.48074591159820557
			],
			"translation":[
				1.789445400238037,
				-1.4646285772323608,
				0.6919381022453308
			]
		},
		{
			"mesh":7,
			"name":"Cube.007",
			"rotation":[
				-0.4935702383518219,
				0.5063481330871582,
				-0.4935702979564667,
				0.506348192691803
			],
			"scale":[
				0.03600312024354935,
				0.45355522632598877,
				0.45355522632598877
			],
			"translation":[
				1.789445400238037,
				-1.8898433446884155,
				1.1280001401901245
			]
		},
		{
			"mesh":8,
			"name":"Cube.008",
			"scale":[
				0.047815680503845215,
				0.39701998233795166,
				0.047815680503845215
			],
			"translation":[
				2.1496965885162354,
				-2.270134687423706,
				0.8209006786346436
			]
		},
		{
			"mesh":9,
			"name":"Cube.009",
			"scale":[
				0.047815680503845215,
				0.39701998233795166,
				0.047815680503845215
			],
			"translation":[
				2.1437907218933105,
				-2.270134687423706,
				1.500063180923462
			]
		},
		{
			"mesh":10,
			"name":"Cube.010",
			"scale":[
				0.047815680503845215,
				0.39701998233795166,
				0.047815680503845215
			],
			"translation":[
				1.4410054683685303,
				-2.270134687423706,
				0.8209006786346436
			]
		},
		{
			"mesh":11,
			"name":"Cube.011",
			"scale":[
				0.047815680503845215,
				0.39701998233795166,
				0.047815680503845215
			],
			"translation":[
				1.4350996017456055,
				-2.270134687423706,
				1.500063180923462
			]
		},
		{
			"mesh":12,
			"name":"Cube.012",
			"rotation":[
				0,
				0.7073068022727966,
				0,
				0.7069067358970642
			],
			"scale":[
				-0.03472128510475159,
				-0.42970338463783264,
				-0.03472128510475159
			],
			"translation":[
				-2.350867986679077,
				-2.2829716205596924,
				2.4602441787719727
			]
		},
		{
			"mesh":13,
			"name":"Cube.013",
			"rotation":[
				0,
				0.7073068022727966,
				0,
				0.7069067358970642
			],
			"scale":[
				-0.03472128510475159,
				-0.42970338463783264,
				-0.03472128510475159
			],
			"translation":[
				-0.8697100877761841,
				-2.2829716205596924,
				2.4594058990478516
			]
		},
		{
			"mesh":14,
			"name":"Cube.014",
			"rotation":[
				0,
				0.7073068022727966,
				0,
				0.7069067358970642
			],
			"scale":[
				-0.03472128510475159,
				-0.42970338463783264,
				-0.03472128510475159
			],
			"translation":[
				-2.3524739742279053,
				-2.2829716205596924,
				-0.3065587282180786
			]
		},
		{
			"mesh":15,
			"name":"Cube.015",
			"rotation":[
				0,
				0.7073068022727966,
				0,
				0.7069067358970642
			],
			"scale":[
				-0.03472128510475159,
				-0.42970338463783264,
				-0.03472128510475159
			],
			"translation":[
				-0.8713154792785645,
				-2.2829716205596924,
				-0.3073970079421997
			]
		},
		{
			"mesh":16,
			"name":"Cube.016",
			"rotation":[
				0,
				-1,
				0,
				0.0002829591976478696
			],
			"scale":[
				0.82768714427948,
				0.29593512415885925,
				1.4882335662841797
			],
			"translation":[
				-1.6217236518859863,
				-2.0735392570495605,
				1.073675274848938
			]
		},
		{
			"mesh":17,
			"name":"Cube.017",
			"rotation":[
				0.5043898820877075,
				-0.49557116627693176,
				-0.5043899416923523,
				0.49557119607925415
			],
			"scale":[
				1.1068295240402222,
				0.13262146711349487,
				0.8777373433113098
			],
			"translation":[
				-1.6051387786865234,
				-1.810143232345581,
				2.620405912399292
			]
		}
	],
	"meshes":[
		{
			"name":"Cube.003",
			"primitives":[
				{
					"attributes":{
						"POSITION":0,
						"NORMAL":1,
						"TEXCOORD_0":2
					},
					"indices":3
				}
			]
		},
		{
			"name":"Cube.005",
			"primitives":[
				{
					"attributes":{
						"POSITION":4,
						"NORMAL":5,
						"TEXCOORD_0":6
					},
					"indices":7
				}
			]
		},
		{
			"name":"Cube.007",
			"primitives":[
				{
					"attributes":{
						"POSITION":8,
						"NORMAL":9,
						"TEXCOORD_0":10
					},
					"indices":7
				}
			]
		},
		{
			"name":"Cube.008",
			"primitives":[
				{
					"attributes":{
						"POSITION":11,
						"NORMAL":12,
						"TEXCOORD_0":13
					},
					"indices":7
				}
			]
		},
		{
			"name":"Cube.009",
			"primitives":[
				{
					"attributes":{
						"POSITION":14,
						"NORMAL":15,
						"TEXCOORD_0":16
					},
					"indices":7
				}
			]
		},
		{
			"name":"Cube.010",
			"primitives":[
				{
					"attributes":{
						"POSITION":17,
						"NORMAL":18,
						"TEXCOORD_0":19
					},
					"indices":7
				}
			]
		},
		{
			"name":"Cube.011",
			"primitives":[
				{
					"attributes":{
						"POSITION":20,
						"NORMAL":21,
						"TEXCOORD_0":22
					},
					"indices":7
				}
			]
		},
		{
			"name":"Cube.012",
			"primitives":[
				{
					"attributes":{
						"POSITION":23,
						"NORMAL":24,
						"TEXCOORD_0":25
					},
					"indices":7
				}
			]
		},
		{
			"name":"Cube.013",
			"primitives":[
				{
					"attributes":{
						"POSITION":26,
						"NORMAL":27,
						"TEXCOORD_0":28
					},
					"indices":7
				}
			]
		},
		{
			"name":"Cube.014",
			"primitives":[
				{
					"attributes":{
						"POSITION":29,
						"NORMAL":30,
						"TEXCOORD_0":31
					},
					"indices":7
				}
			]
		},
		{
			"name":"Cube.015",
			"primitives":[
				{
					"attributes":{
						"POSITION":32,
						"NORMAL":33,
						"TEXCOORD_0":34
					},
					"indices":7
				}
			]
		},
		{
			"name":"Cube.016",
			"primitives":[
				{
					"attributes":{
						"POSITION":35,
						"NORMAL":36,
						"TEXCOORD_0":37
					},
					"indices":7
				}
			]
		},
		{
			"name":"Cube.017",
			"primitives":[
				{
					"attributes":{
						"POSITION":38,
						"NORMAL":39,
						"TEXCOORD_0":40
					},
					"indices":7
				}
			]
		},
		{
			"name":"Cube.018",
			"primitives":[
				{
					"attributes":{
						"POSITION":41,
						"NORMAL":42,
						"TEXCOORD_0":43
					},
					"indices":7
				}
			]
		},
		{
			"name":"Cube.019",
			"primitives":[
				{
					"attributes":{
						"POSITION":44,
						"NORMAL":45,
						"TEXCOORD_0":46
					},
					"indices":7
				}
			]
		},
		{
			"name":"Cube.020",
			"primitives":[
				{
					"attributes":{
						"POSITION":47,
						"NORMAL":48,
						"TEXCOORD_0":49
					},
					"indices":7
				}
			]
		},
		{
			"name":"Cube.021",
			"primitives":[
				{
					"attributes":{
						"POSITION":50,
						"NORMAL":51,
						"TEXCOORD_0":52
					},
					"indices":7
				}
			]
		},
		{
			"name":"Cube.023",
			"primitives":[
				{
					"attributes":{
						"POSITION":53,
						"NORMAL":54,
						"TEXCOORD_0":55
					},
					"indices":7
				}
			]
		}
	],
	"accessors":[
		{
			"bufferView":0,
			"componentType":5126,
			"count":42,
			"max":[
				1.0000001192092896,
				1.0000001192092896,
				1.0000001192092896
			],
			"min":[
				-1.0000001192092896,
				-1.0000001192092896,
				-1.0000001192092896
			],
			"type":"VEC3"
		},
		{
			"bufferView":1,
			"componentType":5126,
			"count":42,
			"type":"VEC3"
		},
		{
			"bufferView":2,
			"componentType":5126,
			"count":42,
			"type":"VEC2"
		},
		{
			"bufferView":3,
			"componentType":5123,
			"count":72,
			"type":"SCALAR"
		},
		{
			"bufferView":4,
			"componentType":5126,
			"count":24,
			"max":[
				1,
				1,
				1
			],
			"min":[
				-1,
				-1,
				-1
			],
			"type":"VEC3"
		},
		{
			"bufferView":5,
			"componentType":5126,
			"count":24,
			"type":"VEC3"
		},
		{
			"bufferView":6,
			"componentType":5126,
			"count":24,
			"type":"VEC2"
		},
		{
			"bufferView":7,
			"componentType":5123,
			"count":36,
			"type":"SCALAR"
		},
		{
			"bufferView":8,
			"componentType":5126,
			"count":24,
			"max":[
				1,
				1,
				1
			],
			"min":[
				-1,
				-1,
				-1
			],
			"type":"VEC3"
		},
		{
			"bufferView":9,
			"componentType":5126,
			"count":24,
			"type":"VEC3"
		},
		{
			"bufferView":10,
			"componentType":5126,
			"count":24,
			"type":"VEC2"
		},
		{
			"bufferView":11,
			"componentType":5126,
			"count":24,
			"max":[
				1,
				1,
				1
			],
			"min":[
				-1,
				-1,
				-1
			],
			"type":"VEC3"
		},
		{
			"bufferView":12,
			"componentType":5126,
			"count":24,
			"type":"VEC3"
		},
		{
			"bufferView":13,
			"componentType":5126,
			"count":24,
			"type":"VEC2"
		},
		{
			"bufferView":14,
			"componentType":5126,
			"count":24,
			"max":[
				1,
				1,
				1
			],
			"min":[
				-1,
				-1,
				-1
			],
			"type":"VEC3"
		},
		{
			"bufferView":15,
			"componentType":5126,
			"count":24,
			"type":"VEC3"
		},
		{
			"bufferView":16,
			"componentType":5126,
			"count":24,
			"type":"VEC2"
		},
		{
			"bufferView":17,
			"componentType":5126,
			"count":24,
			"max":[
				1,
				1,
				1
			],
			"min":[
				-1,
				-1,
				-1
			],
			"type":"VEC3"
		},
		{
			"bufferView":18,
			"componentType":5126,
			"count":24,
			"type":"VEC3"
		},
		{
			"bufferView":19,
			"componentType":5126,
			"count":24,
			"type":"VEC2"
		},
		{
			"bufferView":20,
			"componentType":5126,
			"count":24,
			"max":[
				1,
				1,
				1
			],
			"min":[
				-1,
				-1,
				-1
			],
			"type":"VEC3"
		},
		{
			"bufferView":21,
			"componentType":5126,
			"count":24,
			"type":"VEC3"
		},
		{
			"bufferView":22,
			"componentType":5126,
			"count":24,
			"type":"VEC2"
		},
		{
			"bufferView":23,
			"componentType":5126,
			"count":24,
			"max":[
				1,
				1,
				1
			],
			"min":[
				-1,
				-1,
				-1
			],
			"type":"VEC3"
		},
		{
			"bufferView":24,
			"componentType":5126,
			"count":24,
			"type":"VEC3"
		},
		{
			"bufferView":25,
			"componentType":5126,
			"count":24,
			"type":"VEC2"
		},
		{
			"bufferView":26,
			"componentType":5126,
			"count":24,
			"max":[
				1,
				1,
				1
			],
			"min":[
				-1,
				-1,
				-1
			],
			"type":"VEC3"
		},
		{
			"bufferView":27,
			"componentType":5126,
			"count":24,
			"type":"VEC3"
		},
		{
			"bufferView":28,
			"componentType":5126,
			"count":24,
			"type":"VEC2"
		},
		{
			"bufferView":29,
			"componentType":5126,
			"count":24,
			"max":[
				1,
				1,
				1
			],
			"min":[
				-1,
				-1,
				-1
			],
			"type":"VEC3"
		},
		{
			"bufferView":30,
			"componentType":5126,
			"count":24,
			"type":"VEC3"
		},
		{
			"bufferView":31,
			"componentType":5126,
			"count":24,
			"type":"VEC2"
		},
		{
			"bufferView":32,
			"componentType":5126,
			"count":24,
			"max":[
				1,
				1,
				1
			],
			"min":[
				-1,
				-1,
				-1
			],
			"type":"VEC3"
		},
		{
			"bufferView":33,
			"componentType":5126,
			"count":24,
			"type":"VEC3"
		},
		{
			"bufferView":34,
			"componentType":5126,
			"count":24,
			"type":"VEC2"
		},
		{
			"bufferView":35,
			"componentType":5126,
			"count":24,
			"max":[
				1,
				1,
				1
			],
			"min":[
				-1,
				-1,
				-1
			],
			"type":"VEC3"
		},
		{
			"bufferView":36,
			"componentType":5126,
			"count":24,
			"type":"VEC3"
		},
		{
			"bufferView":37,
			"componentType":5126,
			"count":24,
			"type":"VEC2"
		},
		{
			"bufferView":38,
			"componentType":5126,
			"count":24,
			"max":[
				1,
				1,
				1
			],
			"min":[
				-1,
				-1,
				-1
			],
			"type":"VEC3"
		},
		{
			"bufferView":39,
			"componentType":5126,
			"count":24,
			"type":"VEC3"
		},
		{
			"bufferView":40,
			"componentType":5126,
			"count":24,
			"type":"VEC2"
		},
		{
			"bufferView":41,
			"componentType":5126,
			"count":24,
			"max":[
				1,
				1,
				1
			],
			"min":[
				-1,
				-1,
				-1
			],
			"type":"VEC3"
		},
		{
			"bufferView":42,
			"componentType":5126,
			"count":24,
			"type":"VEC3"
		},
		{
			"bufferView":43,
			"componentType":5126,
			"count":24,
			"type":"VEC2"
		},
		{
			"bufferView":44,
			"componentType":5126,
			"count":24,
			"max":[
				1,
				1,
				1
			],
			"min":[
				-1,
				-1,
				-1
			],
			"type":"VEC3"
		},
		{
			"bufferView":45,
			"componentType":5126,
			"count":24,
			"type":"VEC3"
		},
		{
			"bufferView":46,
			"componentType":5126,
			"count":24,
			"type":"VEC2"
		},
		{
			"bufferView":47,
			"componentType":5126,
			"count":24,
			"max":[
				1,
				1,
				1
			],
			"min":[
				-1,
				-1,
				-1
			],
			"type":"VEC3"
		},
		{
			"bufferView":48,
			"componentType":5126,
			"count":24,
			"type":"VEC3"
		},
		{
			"bufferView":49,
			"componentType":5126,
			"count":24,
			"type":"VEC2"
		},
		{
			"bufferView":50,
			"componentType":5126,
			"count":24,
			"max":[
				1,
				1,
				1
			],
			"min":[
				-1,
				-1,
				-1
			],
			"type":"VEC3"
		},
		{
			"bufferView":51,
			"componentType":5126,
			"count":24,
			"type":"VEC3"
		},
		{
			"bufferView":52,
			"componentType":5126,
			"count":24,
			"type":"VEC2"
		},
		{
			"bufferView":53,
			"componentType":5126,
			"count":24,
			"max":[
				1,
				1,
				1
			],
			"min":[
				-1,
				-1,
				-1
			],
			"type":"VEC3"
		},
		{
			"bufferView":54,
			"componentType":5126,
			"count":24,
			"type":"VEC3"
		},
		{
			"bufferView":55,
			"componentType":5126,
			"count":24,
			"type":"VEC2"
		}
	],
	"bufferViews":[
		{
			"buffer":0,
			"byteLength":504,
			"byteOffset":0,
			"target":34962
		},
		{
			"buffer":0,
			"byteLength":504,
			"byteOffset":504,
			"target":34962
		},
		{
			"buffer":0,
			"byteLength":336,
			"byteOffset":1008,
			"target":34962
		},
		{
			"buffer":0,
			"byteLength":144,
			"byteOffset":1344,
			"target":34963
		},
		{
			"buffer":0,
			"byteLength":288,
			"byteOffset":1488,
			"target":34962
		},
		{
			"buffer":0,
			"byteLength":288,
			"byteOffset":1776,
			"target":34962
		},
		{
			"buffer":0,
			"byteLength":192,
			"byteOffset":2064,
			"target":34962
		},
		{
			"buffer":0,
			"byteLength":72,
			"byteOffset":2256,
			"target":34963
		},
		{
			"buffer":0,
			"byteLength":288,
			"byteOffset":2328,
			"target":34962
		},
		{
			"buffer":0,
			"byteLength":288,
			"byteOffset":2616,
			"target":34962
		},
		{
			"buffer":0,
			"byteLength":192,
			"byteOffset":2904,
			"target":34962
		},
		{
			"buffer":0,
			"byteLength":288,
			"byteOffset":3096,
			"target":34962
		},
		{
			"buffer":0,
			"byteLength":288,
			"byteOffset":3384,
			"target":34962
		},
		{
			"buffer":0,
			"byteLength":192,
			"byteOffset":3672,
			"target":34962
		},
		{
			"buffer":0,
			"byteLength":288,
			"byteOffset":3864,
			"target":34962
		},
		{
			"buffer":0,
			"byteLength":288,
			"byteOffset":4152,
			"target":34962
		},
		{
			"buffer":0,
			"byteLength":192,
			"byteOffset":4440,
			"target":34962
		},
		{
			"buffer":0,
			"byteLength":288,
			"byteOffset":4632,
			"target":34962
		},
		{
			"buffer":0,
			"byteLength":288,
			"byteOffset":4920,
			"target":34962
		},
		{
			"buffer":0,
			"byteLength":192,
			"byteOffset":5208,
			"target":34962
		},
		{
			"buffer":0,
			"byteLength":288,
			"byteOffset":5400,
			"target":34962
		},
		{
			"buffer":0,
			"byteLength":288,
			"byteOffset":5688,
			"target":34962
		},
		{
			"buffer":0,
			"byteLength":192,
			"byteOffset":5976,
			"target":34962
		},
		{
			"buffer":0,
			"byteLength":288,
			"byteOffset":6168,
			"target":34962
		},
		{
			"buffer":0,
			"byteLength":288,
			"byteOffset":6456,
			"target":34962
		},
		{
			"buffer":0,
			"byteLength":192,
			"byteOffset":6744,
			"target":34962
		},
		{
			"buffer":0,
			"byteLength":288,
			"byteOffset":6936,
			"target":34962
		},
		{
			"buffer":0,
			"byteLength":288,
			"byteOffset":7224,
			"target":34962
		},
		{
			"buffer":0,
			"byteLength":192,
			"byteOffset":7512,
			"target":34962
		},
		{
			"buffer":0,
			"byteLength":288,
			"byteOffset":7704,
			"target":34962
		},
		{
			"buffer":0,
			"byteLength":288,
			"byteOffset":7992,
			"target":34962
		},
		{
			"buffer":0,
			"byteLength":192,
			"byteOffset":8280,
			"target":34962
		},
		{
			"buffer":0,
			"byteLength":288,
			"byteOffset":8472,
			"target":34962
		},
		{
			"buffer":0,
			"byteLength":288,
			"byteOffset":8760,
			"target":34962
		},
		{
			"buffer":0,
			"byteLength":192,
			"byteOffset":9048,
			"target":34962
		},
		{
			"buffer":0,
			"byteLength":288,
			"byteOffset":9240,
			"target":34962
		},
		{
			"buffer":0,
			"byteLength":288,
			"byteOffset":9528,
			"target":34962
		},
		{
			"buffer":0,
			"byteLength":192,
			"byteOffset":9816,
			"target":34962
		},
		{
			"buffer":0,
			"byteLength":288,
			"byteOffset":10008,
			"target":34962
		},
		{
			"buffer":0,
			"byteLength":288,
			"byteOffset":10296,
			"target":34962
		},
		{
			"buffer":0,
			"byteLength":192,
			"byteOffset":10584,
			"target":34962
		},
		{
			"buffer":0,
			"byteLength":288,
			"byteOffset":10776,
			"target":34962
		},
		{
			"buffer":0,
			"byteLength":288,
			"byteOffset":11064,
			"target":34962
		},
		{
			"buffer":0,
			"byteLength":192,
			"byteOffset":11352,
			"target":34962
		},
		{
			"buffer":0,
			"byteLength":288,
			"byteOffset":11544,
			"target":34962
		},
		{
			"buffer":0,
			"byteLength":288,
			"byteOffset":11832,
			"target":34962
		},
		{
			"buffer":0,
			"byteLength":192,
			"byteOffset":12120,
			"target":34962
		},
		{
			"buffer":0,
			"byteLength":288,
			"byteOffset":12312,
			"target":34962
		},
		{
			"buffer":0,
			"byteLength":288,
			"byteOffset":12600,
			"target":34962
		},
		{
			"buffer":0,
			"byteLength":192,
			"byteOffset":12888,
			"target":34962
		},
		{
			"buffer":0,
			"byteLength":288,
			"byteOffset":13080,
			"target":34962
		},
		{
			"buffer":0,
			"byteLength":288,
			"byteOffset":13368,
			"target":34962
		},
		{
			"buffer":0,
			"byteLength":192,
			"byteOffset":13656,
			"target":34962
		},
		{
			"buffer":0,
			"byteLength":288,
			"byteOffset":13848,
			"target":34962
		},
		{
			"buffer":0,
			"byteLength":288,
			"byteOffset":14136,
			"target":34962
		},
		{
			"buffer":0,
			"byteLength":192,
			"byteOffset":14424,
			"target":34962
		}
	],
	"buffers":[
		{
			"byteLength":14616,
			"uri":"testcube.bin"
		}
	]
}
